<svg xmlns="http://www.w3.org/2000/svg" version="1.1" xmlns:xlink="http://www.w3.org/1999/xlink" xmlns:svgjs="http://svgjs.dev/svgjs" width="128" height="128" viewBox="0 0 128 128"><g transform="matrix(0.8046875,0,0,0.8046875,7.240309159181969,6.5065917280113865)"><svg viewBox="0 0 101 105" data-background-color="#ffffff" preserveAspectRatio="xMidYMid meet" height="133" width="128" xmlns="http://www.w3.org/2000/svg" xmlns:xlink="http://www.w3.org/1999/xlink"><g id="tight-bounds" transform="matrix(1,0,0,1,5.420840230713978,3.9064097507502)"><svg viewBox="0 0 95.481 95.481" height="95.481" width="95.481"><g><svg viewBox="0 0 95.481 95.481" height="95.481" width="95.481"><g><svg viewBox="0 0 95.481 95.481" height="95.481" width="95.481"><g id="textblocktransform"><svg viewBox="0 0 95.481 95.481" height="95.481" width="95.481" id="textblock"><g><svg viewBox="0 0 95.481 95.481" height="95.481" width="95.481"><g><svg viewBox="0 0 95.481 95.481" height="95.481" width="95.481"><g><svg xmlns="http://www.w3.org/2000/svg" data-name="Layer 1" viewBox="22 22 56 56" x="0" y="0" height="95.481" width="95.481" class="icon-icon-0" data-fill-palette-color="accent" id="icon-0"><path d="M37.76 78A15.81 15.81 0 0 0 52.57 67.63l1.61-4.43 2.43 7.3A11 11 0 0 0 78 67V58H70v9a3 3 0 0 1-5.79 0.94L58.58 51.1 69.17 22H60.65L54.51 38.89l-2.07-6.2A15.62 15.62 0 0 0 22 37.62V62.24A15.78 15.78 0 0 0 37.76 78ZM30 37.62a7.62 7.62 0 0 1 14.85-2.41L50.11 51 45.05 64.89A7.76 7.76 0 0 1 30 62.24Z" fill="#0f100f" data-fill-palette-color="accent"></path></svg></g></svg></g></svg></g></svg></g></svg></g></svg></g><defs></defs></svg><rect width="95.481" height="95.481" fill="none" stroke="none" visibility="hidden"></rect></g></svg></g></svg>